<svg xmlns="http://www.w3.org/2000/svg" viewBox="0 0 1600 900" width="1600" height="900" role="img">
<defs>
<linearGradient id="g" x1="0" y1="0" x2="1" y2="1"><stop offset="0" stop-color="hsl(24 34% 13%)"/><stop offset="1" stop-color="hsl(24 24% 7%)"/></linearGradient>
<radialGradient id="glow" cx="0.5" cy="0.08" r="0.75"><stop offset="0" stop-color="hsl(24 80% 55% / 0.16)"/><stop offset="1" stop-color="hsl(24 80% 55% / 0)"/></radialGradient>
<pattern id="grid" width="50" height="50" patternUnits="userSpaceOnUse"><path d="M50 0H0V50" fill="none" stroke="hsl(24 40% 40% / 0.13)" stroke-width="1"/></pattern>
</defs>
<rect width="1600" height="900" fill="url(#g)"/>
<rect width="1600" height="900" fill="url(#grid)"/>
<rect width="1600" height="900" fill="url(#glow)"/>
<circle cx="800" cy="460" r="235" fill="none" stroke="hsl(24 45% 32%)" stroke-width="3"/><path d="M800 225 L1004 578 L596 578 L951 280 L880 681 L569 419 L1031 419 L720 681 L649 280 Z" fill="none" stroke="hsl(24 70% 68%)" stroke-width="3" opacity="0.75"/><circle cx="800" cy="225" r="22" fill="hsl(24 80% 58%)" stroke="hsl(24 70% 68%)" stroke-width="3"/><circle cx="951" cy="280" r="15" fill="hsl(24 45% 22%)" stroke="hsl(24 70% 68%)" stroke-width="3"/><circle cx="1031" cy="419" r="15" fill="hsl(24 45% 22%)" stroke="hsl(24 70% 68%)" stroke-width="3"/><circle cx="1004" cy="578" r="15" fill="hsl(24 45% 22%)" stroke="hsl(24 70% 68%)" stroke-width="3"/><circle cx="880" cy="681" r="22" fill="hsl(24 80% 58%)" stroke="hsl(24 70% 68%)" stroke-width="3"/><circle cx="720" cy="681" r="15" fill="hsl(24 45% 22%)" stroke="hsl(24 70% 68%)" stroke-width="3"/><circle cx="596" cy="578" r="15" fill="hsl(24 45% 22%)" stroke="hsl(24 70% 68%)" stroke-width="3"/><circle cx="569" cy="419" r="15" fill="hsl(24 45% 22%)" stroke="hsl(24 70% 68%)" stroke-width="3"/><circle cx="649" cy="280" r="15" fill="hsl(24 45% 22%)" stroke="hsl(24 70% 68%)" stroke-width="3"/><rect x="1230" y="250" width="220" height="14" rx="8" fill="hsl(24 40% 22%)"/><rect x="1230" y="250" width="210" height="14" rx="8" fill="hsl(24 75% 55%)"/><rect x="1230" y="300" width="220" height="14" rx="8" fill="hsl(24 40% 22%)"/><rect x="1230" y="300" width="150" height="14" rx="8" fill="hsl(24 75% 55%)"/><rect x="1230" y="350" width="220" height="14" rx="8" fill="hsl(24 40% 22%)"/><rect x="1230" y="350" width="175" height="14" rx="8" fill="hsl(24 75% 55%)"/>
</svg>